<?xml version="1.0" encoding="UTF-8" standalone="no"?>
<!-- Created with Inkscape (http://www.inkscape.org/) -->

<svg
   xmlns:dc="http://purl.org/dc/elements/1.1/"
   xmlns:cc="http://creativecommons.org/ns#"
   xmlns:rdf="http://www.w3.org/1999/02/22-rdf-syntax-ns#"
   xmlns:svg="http://www.w3.org/2000/svg"
   xmlns="http://www.w3.org/2000/svg"
   xmlns:sodipodi="http://sodipodi.sourceforge.net/DTD/sodipodi-0.dtd"
   xmlns:inkscape="http://www.inkscape.org/namespaces/inkscape"
   width="370.15866mm"
   height="161.18019mm"
   viewBox="0 0 370.15866 161.18019"
   version="1.1"
   id="svg8988"
   inkscape:version="0.92.1 r15371"
   sodipodi:docname="nomath.svg">
  <defs
     id="defs8982">
    <clipPath
       id="clip1-92">
      <path
         inkscape:connector-curvature="0"
         id="path7715"
         d="m 773,113 h 16.50781 v 26 H 773 Z m 0,0" />
    </clipPath>
    <marker
       inkscape:stockid="Arrow1Lend"
       orient="auto"
       refY="0"
       refX="0"
       id="marker18228"
       style="overflow:visible"
       inkscape:isstock="true"
       inkscape:collect="always">
      <path
         inkscape:connector-curvature="0"
         id="path18226"
         d="M 0,0 5,-5 -12.5,0 5,5 Z"
         style="fill:#000000;fill-opacity:1;fill-rule:evenodd;stroke:#000000;stroke-width:1.00000003pt;stroke-opacity:1"
         transform="matrix(-0.8,0,0,-0.8,-10,0)" />
    </marker>
    <marker
       inkscape:isstock="true"
       style="overflow:visible"
       id="marker18478"
       refX="0"
       refY="0"
       orient="auto"
       inkscape:stockid="Arrow1Lend"
       inkscape:collect="always">
      <path
         transform="matrix(-0.8,0,0,-0.8,-10,0)"
         style="fill:#000000;fill-opacity:1;fill-rule:evenodd;stroke:#000000;stroke-width:1.00000003pt;stroke-opacity:1"
         d="M 0,0 5,-5 -12.5,0 5,5 Z"
         id="path18476"
         inkscape:connector-curvature="0" />
    </marker>
    <clipPath
       id="clip1-085">
      <path
         id="path15162"
         d="M 398.50781,102 H 450 v 33 h -51.49219 z m 0,0"
         inkscape:connector-curvature="0" />
    </clipPath>
    <clipPath
       id="clip2-7">
      <path
         id="path15165"
         d="m 496,100 h 9.50781 v 37 H 496 Z m 0,0"
         inkscape:connector-curvature="0" />
    </clipPath>
    <marker
       inkscape:isstock="true"
       style="overflow:visible"
       id="marker14789"
       refX="0"
       refY="0"
       orient="auto"
       inkscape:stockid="Arrow1Lend"
       inkscape:collect="always">
      <path
         transform="matrix(-0.8,0,0,-0.8,-10,0)"
         style="fill:#000000;fill-opacity:1;fill-rule:evenodd;stroke:#000000;stroke-width:1.00000003pt;stroke-opacity:1"
         d="M 0,0 5,-5 -12.5,0 5,5 Z"
         id="path14787"
         inkscape:connector-curvature="0" />
    </marker>
    <marker
       inkscape:stockid="Arrow1Lend"
       orient="auto"
       refY="0"
       refX="0"
       id="Arrow1Lend"
       style="overflow:visible"
       inkscape:isstock="true"
       inkscape:collect="always">
      <path
         id="path10729"
         d="M 0,0 5,-5 -12.5,0 5,5 Z"
         style="fill:#000000;fill-opacity:1;fill-rule:evenodd;stroke:#000000;stroke-width:1.00000003pt;stroke-opacity:1"
         transform="matrix(-0.8,0,0,-0.8,-10,0)"
         inkscape:connector-curvature="0" />
    </marker>
    <marker
       inkscape:isstock="true"
       style="overflow:visible"
       id="marker13501"
       refX="0"
       refY="0"
       orient="auto"
       inkscape:stockid="Arrow1Lend">
      <path
         transform="matrix(-0.8,0,0,-0.8,-10,0)"
         style="fill:#000000;fill-opacity:1;fill-rule:evenodd;stroke:#000000;stroke-width:1.00000003pt;stroke-opacity:1"
         d="M 0,0 5,-5 -12.5,0 5,5 Z"
         id="path13499"
         inkscape:connector-curvature="0" />
    </marker>
    <marker
       inkscape:isstock="true"
       style="overflow:visible"
       id="marker13187"
       refX="0"
       refY="0"
       orient="auto"
       inkscape:stockid="Arrow1Lend">
      <path
         transform="matrix(-0.8,0,0,-0.8,-10,0)"
         style="fill:#000000;fill-opacity:1;fill-rule:evenodd;stroke:#000000;stroke-width:1.00000003pt;stroke-opacity:1"
         d="M 0,0 5,-5 -12.5,0 5,5 Z"
         id="path13185"
         inkscape:connector-curvature="0" />
    </marker>
    <marker
       inkscape:isstock="true"
       style="overflow:visible"
       id="marker13341"
       refX="0"
       refY="0"
       orient="auto"
       inkscape:stockid="Arrow1Lend">
      <path
         transform="matrix(-0.8,0,0,-0.8,-10,0)"
         style="fill:#000000;fill-opacity:1;fill-rule:evenodd;stroke:#000000;stroke-width:1.00000003pt;stroke-opacity:1"
         d="M 0,0 5,-5 -12.5,0 5,5 Z"
         id="path13339"
         inkscape:connector-curvature="0" />
    </marker>
    <marker
       inkscape:isstock="true"
       style="overflow:visible"
       id="marker13667"
       refX="0"
       refY="0"
       orient="auto"
       inkscape:stockid="Arrow1Lend">
      <path
         transform="matrix(-0.8,0,0,-0.8,-10,0)"
         style="fill:#000000;fill-opacity:1;fill-rule:evenodd;stroke:#000000;stroke-width:1.00000003pt;stroke-opacity:1"
         d="M 0,0 5,-5 -12.5,0 5,5 Z"
         id="path13665"
         inkscape:connector-curvature="0" />
    </marker>
    <marker
       inkscape:isstock="true"
       style="overflow:visible"
       id="marker14391"
       refX="0"
       refY="0"
       orient="auto"
       inkscape:stockid="Arrow1Lend">
      <path
         transform="matrix(-0.8,0,0,-0.8,-10,0)"
         style="fill:#000000;fill-opacity:1;fill-rule:evenodd;stroke:#000000;stroke-width:1.00000003pt;stroke-opacity:1"
         d="M 0,0 5,-5 -12.5,0 5,5 Z"
         id="path14389"
         inkscape:connector-curvature="0" />
    </marker>
    <marker
       inkscape:isstock="true"
       style="overflow:visible"
       id="marker13839"
       refX="0"
       refY="0"
       orient="auto"
       inkscape:stockid="Arrow1Lend">
      <path
         transform="matrix(-0.8,0,0,-0.8,-10,0)"
         style="fill:#000000;fill-opacity:1;fill-rule:evenodd;stroke:#000000;stroke-width:1.00000003pt;stroke-opacity:1"
         d="M 0,0 5,-5 -12.5,0 5,5 Z"
         id="path13837"
         inkscape:connector-curvature="0" />
    </marker>
    <marker
       inkscape:isstock="true"
       style="overflow:visible"
       id="marker14201"
       refX="0"
       refY="0"
       orient="auto"
       inkscape:stockid="Arrow1Lend">
      <path
         transform="matrix(-0.8,0,0,-0.8,-10,0)"
         style="fill:#000000;fill-opacity:1;fill-rule:evenodd;stroke:#000000;stroke-width:1.00000003pt;stroke-opacity:1"
         d="M 0,0 5,-5 -12.5,0 5,5 Z"
         id="path14199"
         inkscape:connector-curvature="0" />
    </marker>
    <marker
       inkscape:isstock="true"
       style="overflow:visible"
       id="marker14017"
       refX="0"
       refY="0"
       orient="auto"
       inkscape:stockid="Arrow1Lend">
      <path
         transform="matrix(-0.8,0,0,-0.8,-10,0)"
         style="fill:#000000;fill-opacity:1;fill-rule:evenodd;stroke:#000000;stroke-width:1.00000003pt;stroke-opacity:1"
         d="M 0,0 5,-5 -12.5,0 5,5 Z"
         id="path14015"
         inkscape:connector-curvature="0" />
    </marker>
    <marker
       inkscape:isstock="true"
       style="overflow:visible"
       id="marker16472"
       refX="0"
       refY="0"
       orient="auto"
       inkscape:stockid="Arrow1Lend"
       inkscape:collect="always">
      <path
         transform="matrix(-0.8,0,0,-0.8,-10,0)"
         style="fill:#000000;fill-opacity:1;fill-rule:evenodd;stroke:#000000;stroke-width:1.00000003pt;stroke-opacity:1"
         d="M 0,0 5,-5 -12.5,0 5,5 Z"
         id="path16470"
         inkscape:connector-curvature="0" />
    </marker>
    <marker
       inkscape:stockid="Arrow1Lend"
       orient="auto"
       refY="0"
       refX="0"
       id="marker16232"
       style="overflow:visible"
       inkscape:isstock="true"
       inkscape:collect="always">
      <path
         inkscape:connector-curvature="0"
         id="path16230"
         d="M 0,0 5,-5 -12.5,0 5,5 Z"
         style="fill:#000000;fill-opacity:1;fill-rule:evenodd;stroke:#000000;stroke-width:1.00000003pt;stroke-opacity:1"
         transform="matrix(-0.8,0,0,-0.8,-10,0)" />
    </marker>
    <marker
       inkscape:isstock="true"
       style="overflow:visible"
       id="marker15998"
       refX="0"
       refY="0"
       orient="auto"
       inkscape:stockid="Arrow1Lend"
       inkscape:collect="always">
      <path
         transform="matrix(-0.8,0,0,-0.8,-10,0)"
         style="fill:#000000;fill-opacity:1;fill-rule:evenodd;stroke:#000000;stroke-width:1.00000003pt;stroke-opacity:1"
         d="M 0,0 5,-5 -12.5,0 5,5 Z"
         id="path15996"
         inkscape:connector-curvature="0" />
    </marker>
    <marker
       inkscape:stockid="Arrow1Lend"
       orient="auto"
       refY="0"
       refX="0"
       id="marker15770"
       style="overflow:visible"
       inkscape:isstock="true"
       inkscape:collect="always">
      <path
         inkscape:connector-curvature="0"
         id="path15768"
         d="M 0,0 5,-5 -12.5,0 5,5 Z"
         style="fill:#000000;fill-opacity:1;fill-rule:evenodd;stroke:#000000;stroke-width:1.00000003pt;stroke-opacity:1"
         transform="matrix(-0.8,0,0,-0.8,-10,0)" />
    </marker>
    <clipPath
       id="clip1-451">
      <path
         id="path10397"
         d="M 398.50781,100 H 425 v 26 h -26.49219 z m 0,0"
         inkscape:connector-curvature="0" />
    </clipPath>
    <clipPath
       id="clip1-9">
      <path
         id="path10311"
         d="M 398.50781,100 H 428 v 26 h -29.49219 z m 0,0"
         inkscape:connector-curvature="0" />
    </clipPath>
    <clipPath
       id="clip1-08">
      <path
         id="path10211"
         d="M 398.50781,101 H 436 v 25 h -37.49219 z m 0,0"
         inkscape:connector-curvature="0" />
    </clipPath>
    <clipPath
       id="clip2-4">
      <path
         id="path10214"
         d="m 528,100 h 30.50781 v 26 H 528 Z m 0,0"
         inkscape:connector-curvature="0" />
    </clipPath>
    <clipPath
       id="clip1-45">
      <path
         id="path8962"
         d="M 398.50781,100 H 427 v 27 h -28.49219 z m 0,0"
         inkscape:connector-curvature="0" />
    </clipPath>
    <clipPath
       id="clip1-043">
      <path
         id="path8627"
         d="M 398.50781,101 H 422 v 25 h -23.49219 z m 0,0"
         inkscape:connector-curvature="0" />
    </clipPath>
    <clipPath
       id="clip2-35">
      <path
         id="path8630"
         d="m 871,112 h 20.50781 v 19 H 871 Z m 0,0"
         inkscape:connector-curvature="0" />
    </clipPath>
    <clipPath
       id="clip1-4">
      <path
         id="path6944"
         d="M 398.50781,100 H 417 v 27 h -18.49219 z m 0,0"
         inkscape:connector-curvature="0" />
    </clipPath>
    <clipPath
       id="clip2-2">
      <path
         id="path6947"
         d="M 398.50781,154 H 417 v 26 h -18.49219 z m 0,0"
         inkscape:connector-curvature="0" />
    </clipPath>
    <clipPath
       id="clip3-7">
      <path
         id="path6950"
         d="m 445,155 h 53.50781 v 26 H 445 Z m 0,0"
         inkscape:connector-curvature="0" />
    </clipPath>
    <clipPath
       id="clip1-8">
      <path
         id="path6820"
         d="M 398.50781,100 H 417 v 27 h -18.49219 z m 0,0"
         inkscape:connector-curvature="0" />
    </clipPath>
    <clipPath
       id="clip2-1">
      <path
         id="path6823"
         d="m 445,101 h 53.50781 v 26 H 445 Z m 0,0"
         inkscape:connector-curvature="0" />
    </clipPath>
    <clipPath
       id="clip3">
      <path
         id="path6826"
         d="M 398.50781,154 H 417 v 26 h -18.49219 z m 0,0"
         inkscape:connector-curvature="0" />
    </clipPath>
    <clipPath
       id="clip1-7">
      <path
         id="path6251"
         d="m 1054,123 h 4.5078 v 5 H 1054 Z m 0,0"
         inkscape:connector-curvature="0" />
    </clipPath>
    <clipPath
       id="clip2">
      <path
         id="path5974"
         d="m 1012,102 h 13.5078 v 26 H 1012 Z m 0,0"
         inkscape:connector-curvature="0" />
    </clipPath>
    <clipPath
       id="clip1-0">
      <path
         id="path5971"
         d="M 398.50781,102 H 424 v 27 h -25.49219 z m 0,0"
         inkscape:connector-curvature="0" />
    </clipPath>
    <clipPath
       id="clip1-15">
      <path
         id="path6733"
         d="m 398.50781,100 h 24 v 25 h -24 z m 0,0"
         inkscape:connector-curvature="0" />
    </clipPath>
    <clipPath
       id="clip1-33">
      <path
         id="path6586"
         d="M 398.50781,100 H 427 v 17 h -28.49219 z m 0,0"
         inkscape:connector-curvature="0" />
    </clipPath>
    <clipPath
       id="clip1-04">
      <path
         id="path6549"
         d="M 398.50781,100 H 435 v 25 h -36.49219 z m 0,0"
         inkscape:connector-curvature="0" />
    </clipPath>
    <clipPath
       id="clip1-1">
      <path
         id="path6512"
         d="m 399,100 h 22.50781 v 25 H 399 Z m 0,0"
         inkscape:connector-curvature="0" />
    </clipPath>
    <clipPath
       id="clip1-3">
      <path
         id="path6475"
         d="m 399,100 h 29.50781 v 25 H 399 Z m 0,0"
         inkscape:connector-curvature="0" />
    </clipPath>
    <marker
       inkscape:isstock="true"
       style="overflow:visible"
       id="marker14587"
       refX="0"
       refY="0"
       orient="auto"
       inkscape:stockid="Arrow1Lend"
       inkscape:collect="always">
      <path
         transform="matrix(-0.8,0,0,-0.8,-10,0)"
         style="fill:#000000;fill-opacity:1;fill-rule:evenodd;stroke:#000000;stroke-width:1.00000003pt;stroke-opacity:1"
         d="M 0,0 5,-5 -12.5,0 5,5 Z"
         id="path14585"
         inkscape:connector-curvature="0" />
    </marker>
    <marker
       inkscape:isstock="true"
       style="overflow:visible"
       id="marker13039"
       refX="0"
       refY="0"
       orient="auto"
       inkscape:stockid="Arrow1Lend">
      <path
         transform="matrix(-0.8,0,0,-0.8,-10,0)"
         style="fill:#000000;fill-opacity:1;fill-rule:evenodd;stroke:#000000;stroke-width:1.00000003pt;stroke-opacity:1"
         d="M 0,0 5,-5 -12.5,0 5,5 Z"
         id="path13037"
         inkscape:connector-curvature="0" />
    </marker>
  </defs>
  <sodipodi:namedview
     id="base"
     pagecolor="#ffffff"
     bordercolor="#666666"
     borderopacity="1.0"
     inkscape:pageopacity="0.0"
     inkscape:pageshadow="2"
     inkscape:zoom="0.98994949"
     inkscape:cx="694.98633"
     inkscape:cy="342.12179"
     inkscape:document-units="mm"
     inkscape:current-layer="layer1"
     showgrid="false"
     fit-margin-top="0"
     fit-margin-left="0"
     fit-margin-right="0"
     fit-margin-bottom="0"
     inkscape:window-width="1920"
     inkscape:window-height="1017"
     inkscape:window-x="-8"
     inkscape:window-y="117"
     inkscape:window-maximized="1" />
  <metadata
     id="metadata8985">
    <rdf:RDF>
      <cc:Work
         rdf:about="">
        <dc:format>image/svg+xml</dc:format>
        <dc:type
           rdf:resource="http://purl.org/dc/dcmitype/StillImage" />
        <dc:title></dc:title>
      </cc:Work>
    </rdf:RDF>
  </metadata>
  <g
     inkscape:label="Layer 1"
     inkscape:groupmode="layer"
     id="layer1"
     transform="translate(211.91563,-68.24324)">
    <rect
       style="opacity:1;fill:#87de87;fill-opacity:1;stroke:#000000;stroke-width:0.05739099;stroke-miterlimit:4;stroke-dasharray:none;stroke-opacity:1"
       id="rect4487-40-1-5-8"
       width="7.1051235"
       height="5.959826"
       x="-56.841034"
       y="124.60349" />
    <path
       style="fill:none;stroke:#000000;stroke-width:0.26458332px;stroke-linecap:butt;stroke-linejoin:miter;stroke-opacity:1;marker-end:url(#marker13039)"
       d="m -173.39178,178.57866 0.37797,-28.5372"
       id="path11159"
       inkscape:connector-curvature="0" />
    <rect
       style="opacity:1;fill:#ffffff;fill-opacity:1;stroke:#000000;stroke-width:0.30322075;stroke-miterlimit:4;stroke-dasharray:none;stroke-opacity:1"
       id="rect15137"
       width="14.891665"
       height="8.0074072"
       x="-180.66464"
       y="158.37083" />
    <path
       style="fill:none;stroke:#000000;stroke-width:0.26458332px;stroke-linecap:butt;stroke-linejoin:miter;stroke-opacity:1;marker-end:url(#marker14587)"
       d="m -173.39178,142.29294 -0.18899,-27.78125"
       id="path11145"
       inkscape:connector-curvature="0" />
    <rect
       style="opacity:1;fill:#aaccff;fill-opacity:1;stroke:#000000;stroke-width:0.36464238;stroke-miterlimit:4;stroke-dasharray:none;stroke-opacity:1"
       id="rect4487"
       width="41.34528"
       height="41.34528"
       x="-124.26911"
       y="181.82028" />
    <rect
       style="opacity:1;fill:#aaccff;fill-opacity:1;stroke:#000000;stroke-width:0.36464232;stroke-miterlimit:4;stroke-dasharray:none;stroke-opacity:1"
       id="rect4487-4"
       width="41.34528"
       height="41.34528"
       x="-12.099654"
       y="182.45816" />
    <rect
       style="opacity:1;fill:#ffffff;fill-opacity:1;stroke:#000000;stroke-width:0.36464232;stroke-miterlimit:4;stroke-dasharray:none;stroke-opacity:1"
       id="rect4487-4-3"
       width="41.34528"
       height="41.34528"
       x="-67.626541"
       y="182.26724" />
    <rect
       style="opacity:1;fill:#aaccff;fill-opacity:1;stroke:#000000;stroke-width:0.07649017;stroke-miterlimit:4;stroke-dasharray:none;stroke-opacity:1"
       id="rect4487-40-1-7"
       width="5.462326"
       height="13.770551"
       x="124.30276"
       y="169.64412"
       transform="rotate(45)" />
    <rect
       style="opacity:1;fill:#87de87;fill-opacity:1;stroke:#000000;stroke-width:0.07649017;stroke-miterlimit:4;stroke-dasharray:none;stroke-opacity:1"
       id="rect4487-40-1"
       width="5.462326"
       height="13.770551"
       x="109.91788"
       y="169.64412"
       transform="rotate(45)" />
    <rect
       style="opacity:1;fill:#aaccff;fill-opacity:1;stroke:#000000;stroke-width:0.12105555;stroke-miterlimit:4;stroke-dasharray:none;stroke-opacity:1"
       id="rect4487-40"
       width="13.725986"
       height="13.725986"
       x="91.939026"
       y="169.66641"
       transform="rotate(45)" />
    <rect
       style="opacity:1;fill:none;fill-opacity:1;stroke:#000000;stroke-width:0.56735051;stroke-miterlimit:4;stroke-dasharray:none;stroke-opacity:1"
       id="rect4519"
       width="58.860226"
       height="13.438677"
       x="81.171867"
       y="169.95399"
       transform="matrix(0.70779958,0.7064133,-0.70779958,0.7064133,0,0)" />
    <rect
       style="opacity:1;fill:#87de87;fill-opacity:1;stroke:#000000;stroke-width:0.032405;stroke-miterlimit:4;stroke-dasharray:none;stroke-opacity:1"
       id="rect4487-40-1-5"
       width="4.011806"
       height="3.3651299"
       x="-172.38443"
       y="160.91087" />
    <rect
       style="opacity:1;fill:#ffffff;fill-opacity:1;stroke:#ffffff;stroke-width:0.27919665;stroke-miterlimit:4;stroke-dasharray:none;stroke-opacity:1"
       id="rect4612"
       width="9.9957409"
       height="8.8354731"
       x="-67.841324"
       y="173.1114" />
    <rect
       style="opacity:1;fill:#ffffff;fill-opacity:1;stroke:#ffffff;stroke-width:0.29226634;stroke-miterlimit:4;stroke-dasharray:none;stroke-opacity:1"
       id="rect4612-0"
       width="9.9826708"
       height="9.6947222"
       x="-77.933182"
       y="182.02879" />
    <rect
       style="opacity:1;fill:#ffffff;fill-opacity:1;stroke:#ffffff;stroke-width:0.30730119;stroke-miterlimit:4;stroke-dasharray:none;stroke-opacity:1"
       id="rect4612-4"
       width="9.9938726"
       height="10.7058"
       x="-25.952543"
       y="213.28656" />
    <rect
       style="opacity:1;fill:#ffffff;fill-opacity:1;stroke:#ffffff;stroke-width:0.22553505;stroke-miterlimit:4;stroke-dasharray:none;stroke-opacity:1"
       id="rect4612-0-8"
       width="10.667463"
       height="5.4024587"
       x="-36.092636"
       y="223.9082" />
    <rect
       style="opacity:1;fill:#ffeeaa;fill-opacity:1;stroke:#000000;stroke-width:0.23040295;stroke-miterlimit:4;stroke-dasharray:none;stroke-opacity:1"
       id="rect4487-4-4"
       width="16.453566"
       height="41.479519"
       x="43.271179"
       y="182.20711" />
    <rect
       style="opacity:1;fill:#ffe680;fill-opacity:1;stroke:#000000;stroke-width:0.04477644;stroke-miterlimit:4;stroke-dasharray:none;stroke-opacity:1"
       id="rect4487-4-4-3"
       width="5.5731025"
       height="4.6250839"
       x="-176.19946"
       y="171.23085" />
    <rect
       style="opacity:1;fill:#ffe680;fill-opacity:1;stroke:#000000;stroke-width:0.04477644;stroke-miterlimit:4;stroke-dasharray:none;stroke-opacity:1"
       id="rect4487-4-4-3-2"
       width="5.5731025"
       height="4.6250839"
       x="-44.444244"
       y="125.46575" />
    <rect
       style="opacity:1;fill:#ffe680;fill-opacity:1;stroke:#000000;stroke-width:0.04477644;stroke-miterlimit:4;stroke-dasharray:none;stroke-opacity:1"
       id="rect4487-4-4-3-4"
       width="5.5731025"
       height="4.6250839"
       x="16.165682"
       y="125.37842" />
    <rect
       style="opacity:1;fill:#ffe680;fill-opacity:1;stroke:#000000;stroke-width:0.04477644;stroke-miterlimit:4;stroke-dasharray:none;stroke-opacity:1"
       id="rect4487-4-4-3-41"
       width="5.5731025"
       height="4.6250839"
       x="12.564271"
       y="71.99044" />
    <rect
       style="opacity:1;fill:#ffe680;fill-opacity:1;stroke:#000000;stroke-width:0.04477644;stroke-miterlimit:4;stroke-dasharray:none;stroke-opacity:1"
       id="rect4487-4-4-3-3"
       width="5.5731025"
       height="4.6250839"
       x="-48.100922"
       y="71.801445" />
    <g
       id="g18930"
       transform="matrix(0.19248707,0,0,0.19248707,-160.64849,58.793513)">
      <rect
         y="63.129314"
         x="527.21313"
         height="30.962215"
         width="36.912212"
         id="rect4487-40-1-5-8-1"
         style="opacity:1;fill:#87de87;fill-opacity:1;stroke:#000000;stroke-width:0.29815504;stroke-miterlimit:4;stroke-dasharray:none;stroke-opacity:1" />
    </g>
    <path
       style="fill:#aaccff;stroke:#000000;stroke-width:0.3688049px;stroke-linecap:butt;stroke-linejoin:miter;stroke-opacity:1"
       d="m 95.678477,102.83124 c 9.396173,-8.394679 21.030593,-17.806229 35.316903,-12.843006 21.18455,19.492836 21.49144,25.378676 25.32594,40.321046 3.69993,14.20762 3.87133,59.7644 -24.37006,80.80832 -13.10621,6.73182 -18.14793,3.23878 -37.304053,-5.02605 -16.09416,-5.46586 -11.52964,-22.08176 -14.76841,-35.4612 -5.58718,-27.50446 -11.26024,-40.35073 15.79968,-67.79911 z"
       id="path7482"
       inkscape:connector-curvature="0"
       sodipodi:nodetypes="ccccccc" />
    <circle
       style="opacity:1;fill:#ff6600;fill-opacity:1;stroke:#000000;stroke-width:0.15152921;stroke-miterlimit:4;stroke-dasharray:none;stroke-opacity:1"
       id="path7484"
       cx="101.08485"
       cy="121.99009"
       r="0.92423534" />
    <circle
       style="opacity:1;fill:#ff6600;fill-opacity:1;stroke:#000000;stroke-width:0.15152921;stroke-miterlimit:4;stroke-dasharray:none;stroke-opacity:1"
       id="path7484-0"
       cx="122.10722"
       cy="97.455376"
       r="0.92423534" />
    <circle
       style="opacity:1;fill:#ff6600;fill-opacity:1;stroke:#000000;stroke-width:0.15152921;stroke-miterlimit:4;stroke-dasharray:none;stroke-opacity:1"
       id="path7484-8"
       cx="107.24672"
       cy="111.38028"
       r="0.92423534" />
    <circle
       style="opacity:1;fill:#ff6600;fill-opacity:1;stroke:#000000;stroke-width:0.15152921;stroke-miterlimit:4;stroke-dasharray:none;stroke-opacity:1"
       id="path7484-0-5"
       cx="114.71751"
       cy="83.155403"
       r="0.92423534" />
    <circle
       style="opacity:1;fill:#000000;fill-opacity:1;stroke:#000000;stroke-width:0.15152921;stroke-miterlimit:4;stroke-dasharray:none;stroke-opacity:1"
       id="path7484-2"
       cx="112.66042"
       cy="178.15086"
       r="0.92423534" />
    <circle
       style="opacity:1;fill:#000000;fill-opacity:1;stroke:#000000;stroke-width:0.15152921;stroke-miterlimit:4;stroke-dasharray:none;stroke-opacity:1"
       id="path7484-2-2"
       cx="99.872147"
       cy="159.64514"
       r="0.92423534" />
    <circle
       style="opacity:1;fill:#000000;fill-opacity:1;stroke:#000000;stroke-width:0.15152921;stroke-miterlimit:4;stroke-dasharray:none;stroke-opacity:1"
       id="path7484-2-9"
       cx="95.110825"
       cy="131.14134"
       r="0.92423534" />
    <circle
       style="opacity:1;fill:#000000;fill-opacity:1;stroke:#000000;stroke-width:0.15152921;stroke-miterlimit:4;stroke-dasharray:none;stroke-opacity:1"
       id="path7484-2-9-8"
       cx="89.497513"
       cy="141.27638"
       r="0.92423534" />
    <text
       xml:space="preserve"
       style="font-style:normal;font-weight:normal;font-size:6.43014145px;line-height:1.25;font-family:sans-serif;text-align:center;letter-spacing:0px;word-spacing:0px;text-anchor:middle;fill:#000000;fill-opacity:1;stroke:none;stroke-width:0.16075352"
       x="114.36967"
       y="193.32104"
       id="text9691"><tspan
         sodipodi:role="line"
         x="114.36967"
         y="193.32104"
         style="font-weight:bold;font-size:6.3499999px;text-align:center;text-anchor:middle;stroke-width:0.16075352"
         id="tspan9693">search space of</tspan><tspan
         sodipodi:role="line"
         x="114.36967"
         y="201.35872"
         style="font-weight:bold;font-size:6.3499999px;text-align:center;text-anchor:middle;stroke-width:0.16075352"
         id="tspan10447">XD-operations</tspan></text>
    <text
       xml:space="preserve"
       style="font-style:normal;font-weight:normal;font-size:10.58333302px;line-height:1.25;font-family:sans-serif;letter-spacing:0px;word-spacing:0px;fill:#ff6600;fill-opacity:1;stroke:none;stroke-width:0.26458332"
       x="-67.414536"
       y="87.746307"
       id="text10639"><tspan
         sodipodi:role="line"
         id="tspan10637"
         x="-67.414536"
         y="87.746307"
         style="font-size:7.05555534px;fill:#ff6600;stroke-width:0.26458332">Simplex Relaxation</tspan></text>
    <text
       xml:space="preserve"
       style="font-style:normal;font-weight:normal;font-size:10.58333302px;line-height:1.25;font-family:sans-serif;letter-spacing:0px;word-spacing:0px;fill:#0066ff;fill-opacity:1;stroke:none;stroke-width:0.26458332"
       x="-66.589828"
       y="176.44151"
       id="text10643"><tspan
         sodipodi:role="line"
         id="tspan10641"
         x="-66.589828"
         y="176.44151"
         style="font-weight:bold;font-size:8.46666622px;fill:#0066ff;stroke-width:0.26458332">XD Relaxation</tspan></text>
    <g
       id="g10705"
       transform="matrix(0.00527109,0,0,-0.00527109,-179.91283,176.91803)"
       style="fill:#000000;stroke:none">
      <path
         id="path10701"
         d="m 11866.497,17635.619 c -69,-21 -130,-73 -166,-141 -18,-34 -19,-144 -19,-3675 0,-3531 1,-3641 19,-3675 26,-49 74,-98 121,-123 l 40,-22.0003 h 1500 1500 l 40,22.0003 c 47,25 95,74 121,123 18,34 19,144 19,3675 0,3531 -1,3641 -19,3675 -26,49 -74,98 -121,123 l -40,22 -1485,2 c -817,1 -1496,-2 -1510,-6 z m 2384,-823 c 9,-12 16,-32 16,-43 0,-11 -7,-31 -16,-43 l -15,-22 h -939 -939 l -15,22 c -9,12 -16,32 -16,43 0,11 7,31 16,43 l 15,22 h 939 939 z m 0,-320 c 22,-31 20,-64 -4,-88 -20,-20 -33,-20 -950,-20 -917,0 -930,0 -950,20 -24,24 -26,57 -4,88 l 15,22 h 939 939 z m -203,-610 c 52,-15 117,-73 140,-122 22,-49 25,-143 6,-189 -65,-155 -273,-193 -389,-70 -61,64 -78,171 -41,253 50,110 168,163 284,128 z m 147,-1400 c 7,-7 12,-29 12,-49 0,-74 74,-69 -961,-69 -916,0 -929,0 -949,20 -22,22 -26,60 -10,91 10,19 32,19 953,19 720,0 946,-3 955,-12 z m 0,-390 c 7,-7 12,-29 12,-49 0,-74 74,-69 -961,-69 -916,0 -929,0 -949,20 -22,22 -26,60 -10,91 10,19 32,19 953,19 720,0 946,-3 955,-12 z m 0,-390 c 7,-7 12,-29 12,-49 0,-74 64,-69 -967,-69 -910,0 -923,0 -943,20 -22,22 -26,60 -10,91 10,19 32,19 953,19 720,0 946,-3 955,-12 z m 0,-390 c 7,-7 12,-29 12,-49 0,-74 64,-69 -967,-69 -910,0 -923,0 -943,20 -22,22 -26,60 -10,91 10,19 32,19 953,19 720,0 946,-3 955,-12 z m 222,-1329 c 21,-12 47,-38 59,-59 20,-37 21,-49 21,-432 0,-393 0,-395 -22,-428 -13,-18 -36,-43 -51,-54 -27,-20 -42,-21 -315,-24 -282,-3 -288,-2 -332,20 -33,17 -51,35 -67,68 -23,43 -23,50 -23,415 0,211 4,385 10,404 5,19 20,45 32,59 45,49 63,51 367,52 270,0 285,-1 321,-21 z"
         inkscape:connector-curvature="0" />
      <path
         id="path10703"
         d="m 2355.4969,17591.619 c -29,-16 -54,-40 -74,-72 l -30,-48 -3,-2801 c -3,-3086 -7,-2846 58,-2913 67,-68 -94,-63 1919,-63 1617,0 1821,-2 1821,-15 0,-15 -78,-1007 -82,-1055 l -3,-25 -677,-5 c -813,-6 -733,11 -733,-156 v -108 l 34,-23 34,-23 h 2024 c 2206,0 2081,-3 2103,55 14,36 13,168 -1,199 -26,55 -32,56 -724,56 -598,0 -635,1 -635,18 0,9 -18,240 -40,512 -22,272 -40,512 -40,533 v 37 h 1818 c 1736.0001,0 1819.0001,1 1857.0001,19 58,26 101,80 115,143 8,39 10,779 8,2833 -3,2568 -4,2782 -20,2810 -20,38 -63,78 -105,99 -29,15 -392,16 -4306.0001,16 h -4274 z m 8526.0001,-2937 v -2675 l -4207.0001,-3 -4208,-2 v 2680 2680 l 4208,-2 4207.0001,-3 z"
         inkscape:connector-curvature="0" />
    </g>
    <text
       xml:space="preserve"
       style="font-style:normal;font-weight:normal;font-size:6.43014145px;line-height:1.25;font-family:sans-serif;text-align:center;letter-spacing:0px;word-spacing:0px;text-anchor:middle;fill:#000000;fill-opacity:1;stroke:none;stroke-width:0.16075352"
       x="68.375717"
       y="83.563934"
       id="text9691-9"><tspan
         sodipodi:role="line"
         x="68.375717"
         y="83.563934"
         style="font-weight:bold;font-size:5.64444447px;text-align:center;text-anchor:middle;stroke-width:0.16075352"
         id="tspan9693-6">standard NAS</tspan><tspan
         sodipodi:role="line"
         x="68.375717"
         y="91.601608"
         style="font-weight:bold;font-size:5.64444447px;text-align:center;text-anchor:middle;stroke-width:0.16075352"
         id="tspan10447-2">search space</tspan></text>
    <path
       style="fill:none;stroke:#000000;stroke-width:0.26458332px;stroke-linecap:butt;stroke-linejoin:miter;stroke-opacity:1;marker-end:url(#marker15770)"
       d="M 89.229597,86.23715 105.10251,80.729631"
       id="path15452"
       inkscape:connector-curvature="0"
       sodipodi:nodetypes="cc" />
    <path
       style="fill:none;stroke:#000000;stroke-width:0.26458332px;stroke-linecap:butt;stroke-linejoin:miter;stroke-opacity:1;marker-end:url(#marker15998)"
       d="m 89.229597,86.23715 22.478343,6.427899"
       id="path15988"
       inkscape:connector-curvature="0"
       sodipodi:nodetypes="cc" />
    <path
       style="fill:none;stroke:#000000;stroke-width:0.26458332px;stroke-linecap:butt;stroke-linejoin:miter;stroke-opacity:1;marker-end:url(#marker16232)"
       d="M 89.229597,86.23715 102.5565,106.482"
       id="path16222"
       inkscape:connector-curvature="0"
       sodipodi:nodetypes="cc" />
    <path
       style="fill:none;stroke:#000000;stroke-width:0.26458332px;stroke-linecap:butt;stroke-linejoin:miter;stroke-opacity:1;marker-end:url(#marker16472)"
       d="m 89.229597,86.23715 10.75484,30.02983"
       id="path16462"
       inkscape:connector-curvature="0"
       sodipodi:nodetypes="cc" />
    <rect
       style="opacity:1;fill:none;fill-opacity:1;stroke:#b3b3b3;stroke-width:0.24530268;stroke-miterlimit:4;stroke-dasharray:none;stroke-opacity:1"
       id="rect18858"
       width="34.415524"
       height="58.797691"
       x="-20.365782"
       y="101.03244" />
    <rect
       style="opacity:1;fill:none;fill-opacity:1;stroke:#b3b3b3;stroke-width:0.19158854;stroke-miterlimit:4;stroke-dasharray:none;stroke-opacity:1"
       id="rect18858-5"
       width="20.975834"
       height="58.847759"
       x="-80.606445"
       y="101.00697" />
    <ellipse
       style="opacity:1;fill:#000000;fill-opacity:1;stroke:#000000;stroke-width:0.13049079;stroke-miterlimit:4;stroke-dasharray:none;stroke-opacity:1"
       id="path11088"
       cx="-208.38449"
       cy="182.29881"
       rx="2.4347546"
       ry="2.5663631" />
    <ellipse
       style="opacity:1;fill:#000000;fill-opacity:1;stroke:#000000;stroke-width:0.13049079;stroke-miterlimit:4;stroke-dasharray:none;stroke-opacity:1"
       id="path11088-9"
       cx="-173.33424"
       cy="182.92702"
       rx="2.4347546"
       ry="2.5663631" />
    <ellipse
       style="opacity:1;fill:#000000;fill-opacity:1;stroke:#000000;stroke-width:0.13049079;stroke-miterlimit:4;stroke-dasharray:none;stroke-opacity:1"
       id="path11088-5"
       cx="-173.06697"
       cy="145.24205"
       rx="2.4347546"
       ry="2.5663631" />
    <ellipse
       style="opacity:1;fill:#000000;fill-opacity:1;stroke:#000000;stroke-width:0.13049079;stroke-miterlimit:4;stroke-dasharray:none;stroke-opacity:1"
       id="path11088-58"
       cx="-209.41563"
       cy="145.7766"
       rx="2.4347546"
       ry="2.5663631" />
    <ellipse
       style="opacity:1;fill:#000000;fill-opacity:1;stroke:#000000;stroke-width:0.13049079;stroke-miterlimit:4;stroke-dasharray:none;stroke-opacity:1"
       id="path11088-6"
       cx="-173.60152"
       cy="111.03156"
       rx="2.4347546"
       ry="2.5663631" />
    <ellipse
       style="opacity:1;fill:#000000;fill-opacity:1;stroke:#000000;stroke-width:0.13049079;stroke-miterlimit:4;stroke-dasharray:none;stroke-opacity:1"
       id="path11088-3"
       cx="-209.14838"
       cy="111.29883"
       rx="2.4347546"
       ry="2.5663631" />
    <ellipse
       style="opacity:1;fill:#000000;fill-opacity:1;stroke:#000000;stroke-width:0.13049079;stroke-miterlimit:4;stroke-dasharray:none;stroke-opacity:1"
       id="path11088-4"
       cx="-188.03407"
       cy="73.346558"
       rx="2.4347546"
       ry="2.5663631" />
    <ellipse
       style="opacity:1;fill:#000000;fill-opacity:1;stroke:#000000;stroke-width:0.13049079;stroke-miterlimit:4;stroke-dasharray:none;stroke-opacity:1"
       id="path11088-7"
       cx="-192.31038"
       cy="215.80119"
       rx="2.4347546"
       ry="2.5663631" />
    <path
       style="fill:none;stroke:#000000;stroke-width:0.26458332px;stroke-linecap:butt;stroke-linejoin:miter;stroke-opacity:1;marker-end:url(#marker14017)"
       d="m -207.9766,108.0861 c 0.56697,-1.32292 18.33184,-31.372025 18.33184,-31.372025"
       id="path11141"
       inkscape:connector-curvature="0" />
    <path
       style="fill:none;stroke:#000000;stroke-width:0.26458332px;stroke-linecap:butt;stroke-linejoin:miter;stroke-opacity:1;marker-end:url(#marker14201)"
       d="m -174.52571,107.89711 -11.1503,-31.561011"
       id="path11143"
       inkscape:connector-curvature="0" />
    <path
       style="fill:none;stroke:#000000;stroke-width:0.26458332px;stroke-linecap:butt;stroke-linejoin:miter;stroke-opacity:1;marker-end:url(#marker13839)"
       d="m -177.36053,143.23788 -29.48214,-29.67113"
       id="path11147"
       inkscape:connector-curvature="0" />
    <path
       style="fill:none;stroke:#000000;stroke-width:0.26458332px;stroke-linecap:butt;stroke-linejoin:miter;stroke-opacity:1;marker-end:url(#marker14391)"
       d="m -207.59862,143.23788 30.42707,-30.0491"
       id="path11149"
       inkscape:connector-curvature="0" />
    <path
       style="fill:none;stroke:#000000;stroke-width:0.26458332px;stroke-linecap:butt;stroke-linejoin:miter;stroke-opacity:1;marker-end:url(#marker13667)"
       d="m -209.62967,141.65916 0.39894,-26.33616"
       id="path11151"
       inkscape:connector-curvature="0"
       sodipodi:nodetypes="cc" />
    <path
       style="fill:none;stroke:#000000;stroke-width:0.26458332px;stroke-linecap:butt;stroke-linejoin:miter;stroke-opacity:1;marker-end:url(#marker13341)"
       d="m -208.64281,178.46796 -0.46772,-28.23751"
       id="path11153"
       inkscape:connector-curvature="0"
       sodipodi:nodetypes="cc" />
    <path
       style="fill:none;stroke:#000000;stroke-width:0.26458332px;stroke-linecap:butt;stroke-linejoin:miter;stroke-opacity:1;marker-end:url(#marker13187)"
       d="m -205.33078,180.46855 29.86012,-32.31697"
       id="path11155"
       inkscape:connector-curvature="0" />
    <path
       style="fill:none;stroke:#000000;stroke-width:0.26458332px;stroke-linecap:butt;stroke-linejoin:miter;stroke-opacity:1;marker-end:url(#marker13501)"
       d="M -176.03762,179.71259 -204.9528,149.28551"
       id="path11157"
       inkscape:connector-curvature="0" />
    <path
       style="fill:none;stroke:#000000;stroke-width:0.26458332px;stroke-linecap:butt;stroke-linejoin:miter;stroke-opacity:1;marker-end:url(#Arrow1Lend)"
       d="m -189.83375,212.59652 14.93006,-26.26935"
       id="path11161"
       inkscape:connector-curvature="0" />
    <path
       style="fill:none;stroke:#000000;stroke-width:0.26458332px;stroke-linecap:butt;stroke-linejoin:miter;stroke-opacity:1;marker-end:url(#marker14789)"
       d="M -194.36946,212.02956 -205.89773,185.9492"
       id="path11163"
       inkscape:connector-curvature="0" />
    <text
       xml:space="preserve"
       style="font-style:normal;font-weight:normal;font-size:4.23333311px;line-height:1.25;font-family:sans-serif;letter-spacing:0px;word-spacing:0px;fill:#000000;fill-opacity:1;stroke:none;stroke-width:0.26458332"
       x="-165.42024"
       y="104.99699"
       id="text15238"><tspan
         sodipodi:role="line"
         id="tspan15236"
         x="-165.42024"
         y="104.99699"
         style="font-style:normal;font-variant:normal;font-weight:normal;font-stretch:normal;font-size:4.23333311px;font-family:sans-serif;-inkscape-font-specification:sans-serif;stroke-width:0.26458332">picking operation</tspan><tspan
         sodipodi:role="line"
         x="-165.42024"
         y="110.28865"
         style="font-style:normal;font-variant:normal;font-weight:normal;font-stretch:normal;font-size:4.23333311px;font-family:sans-serif;-inkscape-font-specification:sans-serif;stroke-width:0.26458332"
         id="tspan15310">for edge (2,4) ...</tspan></text>
    <text
       xml:space="preserve"
       style="font-style:normal;font-weight:normal;font-size:3.52777767px;line-height:1.25;font-family:sans-serif;letter-spacing:0px;word-spacing:0px;fill:#ffffff;fill-opacity:1;stroke:none;stroke-width:0.06736842"
       x="-193.67125"
       y="216.78629"
       id="text15242"><tspan
         sodipodi:role="line"
         id="tspan15240"
         x="-193.67125"
         y="216.78629"
         style="font-size:3.52777767px;fill:#ffffff;stroke-width:0.06736842">in</tspan></text>
    <text
       xml:space="preserve"
       style="font-style:normal;font-weight:normal;font-size:3.52777767px;line-height:1.25;font-family:sans-serif;letter-spacing:0px;word-spacing:0px;fill:#ffffff;fill-opacity:1;stroke:none;stroke-width:0.06736842"
       x="-174.47861"
       y="184.06577"
       id="text15242-8"><tspan
         sodipodi:role="line"
         id="tspan15240-4"
         x="-174.47861"
         y="184.06577"
         style="font-size:3.52777767px;fill:#ffffff;stroke-width:0.06736842">2</tspan></text>
    <text
       xml:space="preserve"
       style="font-style:normal;font-weight:normal;font-size:3.52777767px;line-height:1.25;font-family:sans-serif;letter-spacing:0px;word-spacing:0px;fill:#ffffff;fill-opacity:1;stroke:none;stroke-width:0.06736842"
       x="-209.49092"
       y="183.53122"
       id="text15242-7"><tspan
         sodipodi:role="line"
         id="tspan15240-7"
         x="-209.49092"
         y="183.53122"
         style="font-size:3.52777767px;fill:#ffffff;stroke-width:0.06736842">1</tspan></text>
    <text
       xml:space="preserve"
       style="font-style:normal;font-weight:normal;font-size:3.52777767px;line-height:1.25;font-family:sans-serif;letter-spacing:0px;word-spacing:0px;fill:#ffffff;fill-opacity:1;stroke:none;stroke-width:0.06736842"
       x="-210.56001"
       y="147.18259"
       id="text15242-1"><tspan
         sodipodi:role="line"
         id="tspan15240-8"
         x="-210.56001"
         y="147.18259"
         style="font-size:3.52777767px;fill:#ffffff;stroke-width:0.06736842">3</tspan></text>
    <text
       xml:space="preserve"
       style="font-style:normal;font-weight:normal;font-size:3.52777767px;line-height:1.25;font-family:sans-serif;letter-spacing:0px;word-spacing:0px;fill:#ffffff;fill-opacity:1;stroke:none;stroke-width:0.06736842"
       x="-174.21135"
       y="146.38078"
       id="text15242-70"><tspan
         sodipodi:role="line"
         id="tspan15240-85"
         x="-174.21135"
         y="146.38078"
         style="font-size:3.52777767px;fill:#ffffff;stroke-width:0.06736842">4</tspan></text>
    <text
       xml:space="preserve"
       style="font-style:normal;font-weight:normal;font-size:3.52777767px;line-height:1.25;font-family:sans-serif;letter-spacing:0px;word-spacing:0px;fill:#ffffff;fill-opacity:1;stroke:none;stroke-width:0.06736842"
       x="-174.80733"
       y="112.37074"
       id="text15242-76"><tspan
         sodipodi:role="line"
         id="tspan15240-83"
         x="-174.80733"
         y="112.37074"
         style="font-size:3.52777767px;fill:#ffffff;stroke-width:0.06736842">6</tspan></text>
    <text
       xml:space="preserve"
       style="font-style:normal;font-weight:normal;font-size:3.52777767px;line-height:1.25;font-family:sans-serif;letter-spacing:0px;word-spacing:0px;fill:#ffffff;fill-opacity:1;stroke:none;stroke-width:0.06736842"
       x="-210.28735"
       y="112.70482"
       id="text15242-9"><tspan
         sodipodi:role="line"
         id="tspan15240-3"
         x="-210.28735"
         y="112.70482"
         style="font-size:3.52777767px;fill:#ffffff;stroke-width:0.06736842">5</tspan></text>
    <text
       xml:space="preserve"
       style="font-style:normal;font-weight:normal;font-size:2.82222223px;line-height:1.25;font-family:sans-serif;letter-spacing:0px;word-spacing:0px;fill:#ffffff;fill-opacity:1;stroke:none;stroke-width:0.06736842"
       x="-190.42975"
       y="74.303703"
       id="text15242-79"><tspan
         sodipodi:role="line"
         id="tspan15240-2"
         x="-190.42975"
         y="74.303703"
         style="font-size:2.82222223px;fill:#ffffff;stroke-width:0.06736842">out</tspan></text>
    <text
       xml:space="preserve"
       style="font-style:normal;font-weight:normal;font-size:4.23333311px;line-height:1.25;font-family:sans-serif;letter-spacing:0px;word-spacing:0px;fill:#000000;fill-opacity:1;stroke:none;stroke-width:0.26458332"
       x="-165.16504"
       y="90.622864"
       id="text15238-3"><tspan
         sodipodi:role="line"
         x="-165.16504"
         y="90.622864"
         style="font-style:normal;font-variant:normal;font-weight:normal;font-stretch:normal;font-size:4.23333311px;font-family:sans-serif;-inkscape-font-specification:sans-serif;stroke-width:0.26458332"
         id="tspan15310-0">running NAS</tspan><tspan
         sodipodi:role="line"
         x="-165.16504"
         y="95.914528"
         style="font-style:normal;font-variant:normal;font-weight:normal;font-stretch:normal;font-size:4.23333311px;font-family:sans-serif;-inkscape-font-specification:sans-serif;stroke-width:0.26458332"
         id="tspan15335">algorithm ...</tspan></text>
    <text
       xml:space="preserve"
       style="font-style:normal;font-weight:normal;font-size:4.23333311px;line-height:1.25;font-family:sans-serif;letter-spacing:0px;word-spacing:0px;fill:#000000;fill-opacity:1;stroke:none;stroke-width:0.26458332"
       x="-147.62749"
       y="153.78203"
       id="text15238-3-8"><tspan
         sodipodi:role="line"
         x="-147.62749"
         y="153.78203"
         style="font-style:normal;font-variant:normal;font-weight:normal;font-stretch:normal;font-size:4.23333311px;font-family:sans-serif;-inkscape-font-specification:sans-serif;text-align:center;text-anchor:middle;stroke-width:0.26458332"
         id="tspan15310-0-7">shared weights</tspan><tspan
         sodipodi:role="line"
         x="-147.62749"
         y="159.0737"
         style="font-style:normal;font-variant:normal;font-weight:normal;font-stretch:normal;font-size:4.23333311px;font-family:sans-serif;-inkscape-font-specification:sans-serif;text-align:center;text-anchor:middle;stroke-width:0.26458332"
         id="tspan15335-8">at edge (2,4)</tspan></text>
    <text
       xml:space="preserve"
       style="font-style:normal;font-weight:normal;font-size:4.23333311px;line-height:1.25;font-family:sans-serif;letter-spacing:0px;word-spacing:0px;fill:#000000;fill-opacity:1;stroke:none;stroke-width:0.26458332"
       x="-152.08929"
       y="182.13179"
       id="text15238-3-8-6"><tspan
         sodipodi:role="line"
         x="-151.34515"
         y="182.13179"
         style="font-style:normal;font-variant:normal;font-weight:normal;font-stretch:normal;font-size:4.23333311px;font-family:sans-serif;-inkscape-font-specification:sans-serif;text-align:center;text-anchor:middle;stroke-width:0.26458332"
         id="tspan15335-8-3">input to </tspan><tspan
         sodipodi:role="line"
         x="-152.08929"
         y="187.42346"
         style="font-style:normal;font-variant:normal;font-weight:normal;font-stretch:normal;font-size:4.23333311px;font-family:sans-serif;-inkscape-font-specification:sans-serif;text-align:center;text-anchor:middle;stroke-width:0.26458332"
         id="tspan18214">edge (2,4)</tspan></text>
    <path
       style="fill:none;stroke:#000000;stroke-width:0.26458332px;stroke-linecap:butt;stroke-linejoin:miter;stroke-opacity:1;marker-end:url(#marker18478)"
       d="m -161.32734,179.91608 -8.75667,-6.21482"
       id="path18216"
       inkscape:connector-curvature="0"
       sodipodi:nodetypes="cc" />
    <path
       style="fill:none;stroke:#000000;stroke-width:0.26458332px;stroke-linecap:butt;stroke-linejoin:miter;stroke-opacity:1;marker-end:url(#marker18228)"
       d="m -163.87393,153.96187 -6.03551,6.14719"
       id="path18218"
       inkscape:connector-curvature="0"
       sodipodi:nodetypes="cc" />
    <rect
       style="opacity:1;fill:none;fill-opacity:1;stroke:#aaccff;stroke-width:0.26301792;stroke-miterlimit:4;stroke-dasharray:none;stroke-opacity:1"
       id="rect6538"
       width="195.03572"
       height="87.314468"
       x="-128.76088"
       y="138.29936" />
    <rect
       style="opacity:1;fill:none;fill-opacity:1;stroke:#ffccaa;stroke-width:0.26499999;stroke-miterlimit:4;stroke-dasharray:none;stroke-opacity:1"
       id="rect6540"
       width="131.34673"
       height="49.136902"
       x="-88.317421"
       y="68.37574" />
    <circle
       style="opacity:1;fill:#000000;fill-opacity:1;stroke:#000000;stroke-width:0.15152921;stroke-miterlimit:4;stroke-dasharray:none;stroke-opacity:1"
       id="path7484-2-4"
       cx="134.77879"
       cy="150.28249"
       r="0.92423534" />
    <path
       style="fill:none;stroke:#000000;stroke-width:1.67299998;stroke-linecap:butt;stroke-linejoin:miter;stroke-miterlimit:4;stroke-dasharray:none;stroke-opacity:1"
       d="m -31.725563,93.550366 c -5.75889,0.05457 -11.48712,1.416626 -16.6893,3.877923 -2.28097,1.018005 -4.48882,2.189194 -6.67789,3.389651 -11.13213,-6.273823 -24.23455,-5.940753 -27.09762,1.52871 -1.34136,3.95109 -2.37397,6.52873 -1.74777,10.48394 -34.353347,-39.077647 -3.93651,8.29887 -5.52932,12.34503 -10.14048,24.43666 -4.26337,36.90653 8.86101,35.20828 15.55503,9.9539 40.51158,4.21831 54.95706,0.2114 1.17997,0.0862 2.30168,0.49777 3.45547,0.73014 5.08368,1.25725 10.11082,2.91078 15.3546698,3.36536 4.32493,0.35943 8.68411,-0.21055 12.86406,-1.32817 4.9171702,-1.27661 9.6327502,-3.2035 14.2808802,-5.23022 0.67019,-0.10115 1.33781,0.094 2.00737,0.11815 5.09771,0.52651 10.2077,1.39722 15.34872,1.03319 2.82077,-0.23461 5.70224,-0.98216 7.97266,-2.74214 2.35135,-1.85289 3.77355,-4.65372 4.45386,-7.52468 0.27599,-1.10386 0.44567,-2.23082 0.58457,-3.35913 2.83102,-3.21458 6.17713,-5.97939 8.65191,-9.50131 1.45402,-2.18765 2.19043,-4.87211 1.89616,-7.49508 -0.30657,-3.56245 -1.31506,-4.07693 -2.79985,-7.29069 -0.78517,-1.67702 -3.40074,-4.614 -4.21203,-6.27663 -1.00229,-3.42924 -1.23701,-8.31141 -3.79513,-10.86294 -2.73163,-2.74109 -6.50466,-4.256498 -10.30963,-4.697233 -3.07499,-0.423958 -6.19278,-0.283578 -9.27518,-0.02066 -6.03231,-1.844746 -12.18782,-3.516162 -18.51509,-3.869883 -7.5252302,-0.462719 -15.0579602,0.582581 -22.39083,2.215655 l -1.92025,0.42962 c -0.72568,-0.241824 -1.36635,-0.677127 -2.07692,-0.957728 -5.51447,-2.523858 -11.58131,-3.867626 -17.65159,-3.780564 z"
       id="path4714"
       inkscape:connector-curvature="0"
       sodipodi:nodetypes="ccccccccccccccccccccccccccccc" />
  </g>
</svg>
